<?xml version="1.0" encoding="UTF-8" standalone="no"?>
<!DOCTYPE svg PUBLIC "-//W3C//DTD SVG 1.1//EN" "http://www.w3.org/Graphics/SVG/1.1/DTD/svg11.dtd">
<svg width="100%" height="100%" viewBox="0 0 1954 426" version="1.1" xmlns="http://www.w3.org/2000/svg" xmlns:xlink="http://www.w3.org/1999/xlink" xml:space="preserve" xmlns:serif="http://www.serif.com/" style="fill-rule:evenodd;clip-rule:evenodd;stroke-linejoin:round;stroke-miterlimit:2;">
    <g transform="matrix(1,0,0,1,-78.226302,-162.36162)">
        <g transform="matrix(1,0,0,1,-245.1616,-132.746017)">
            <path d="M502.563,439.615C503.912,435.548 507.715,432.803 512,432.803C516.285,432.803 520.088,435.548 521.437,439.615L563.424,566.177C564.064,568.108 564.097,570.19 563.518,572.14L521.531,713.419C520.277,717.637 516.4,720.529 512,720.529C507.6,720.529 503.723,717.637 502.469,713.419L460.482,572.14C459.903,570.19 459.936,568.108 460.576,566.177L502.563,439.615ZM486.418,566.278L537.582,566.278C537.663,565.165 537.539,564.04 537.209,562.97L517.213,497.927C516.467,495.503 514.367,493.866 512,493.866C509.633,493.866 507.533,495.503 506.787,497.927L486.791,562.97C486.461,564.04 486.337,565.165 486.418,566.278Z" style="fill:url(#_Linear1);"/>
            <g transform="matrix(1,0,0,1,0,-0.250807)">
                <path d="M338.175,464.907C339.003,461.5 337.987,457.909 335.496,455.442C332.284,452.35 330.3,448.005 330.3,443.199C330.3,437.849 332.76,433.069 336.609,429.929C338.888,428.041 340.207,425.236 340.207,422.276C340.269,411.491 340.269,388.211 340.269,388.211L354.565,388.211L354.565,422.276C354.565,425.254 355.892,428.077 358.186,429.977C362.074,433.069 364.534,437.849 364.534,443.199C364.534,448.005 362.55,452.35 359.356,455.46C356.872,457.921 355.859,461.503 356.684,464.901C358.224,471.347 360.648,481.32 362.393,488.501C363.069,491.282 362.522,494.218 360.89,496.568C359.257,498.919 356.697,500.457 353.855,500.794C352.019,500.957 349.889,501.072 347.417,501.072C344.945,501.072 342.815,500.957 340.982,500.768C338.148,500.432 335.594,498.897 333.965,496.553C332.337,494.209 331.791,491.28 332.465,488.507C334.186,481.32 336.61,471.347 338.175,464.907Z" style="fill:url(#_Linear2);"/>
            </g>
            <path d="M481.238,695.51C417.007,681.419 368.873,624.138 368.873,555.703C368.873,522.989 379.872,492.824 398.371,468.707L398.371,415.067L332.945,389.589C327.156,387.334 323.355,381.745 323.388,375.532C323.421,369.32 327.28,363.77 333.093,361.577L506.705,296.073C510.118,294.786 513.882,294.786 517.295,296.073L690.907,361.577C696.72,363.77 700.579,369.32 700.612,375.532C700.645,381.745 696.844,387.334 691.055,389.589L625.629,415.067L625.629,468.707C644.128,492.824 655.127,522.989 655.127,555.703C655.127,624.138 606.993,681.419 542.762,695.51L556.996,647.617C590.939,630.954 614.327,596.038 614.327,555.703C614.327,510.303 584.697,471.77 543.737,458.401L535.911,434.813C532.493,424.508 522.857,417.553 512,417.553C501.143,417.553 491.507,424.508 488.089,434.813L480.263,458.401C439.303,471.77 409.673,510.303 409.673,555.703C409.673,596.038 433.061,630.954 467.004,647.617L481.238,695.51Z" style="fill:url(#_Linear3);"/>
        </g>
        <g>
            <g transform="matrix(22.505675,0,0,22.505675,-12540.932654,-4296.67931)">
                <path d="M580.958,211.837L580.958,203.197L582.59,203.197L582.59,207.181L585.878,203.197L587.87,203.197L584.258,207.457L588.098,211.837L586.034,211.837L582.59,207.901L582.59,211.837L580.958,211.837Z" style="fill:url(#_Linear4);fill-rule:nonzero;"/>
            </g>
            <path d="M750.787,474.914C736.113,474.914 723.24,471.628 712.167,465.057C701.094,458.485 692.475,449.415 686.308,437.847C680.142,426.279 677.058,412.979 677.058,397.945C677.058,382.731 680.209,369.34 686.511,357.772C692.812,346.204 701.5,337.179 712.572,330.698C723.645,324.216 736.383,320.975 750.787,320.975C765.461,320.975 778.356,324.261 789.474,330.833C800.592,337.405 809.257,346.474 815.468,358.042C821.68,369.61 824.786,382.911 824.786,397.945C824.786,413.069 821.657,426.414 815.401,437.982C809.144,449.55 800.457,458.598 789.339,465.124C778.221,471.651 765.371,474.914 750.787,474.914ZM813.33,397.945C778.886,397.945 750.922,369.717 750.922,334.949C750.922,369.717 722.958,397.945 688.514,397.945C722.958,397.945 750.922,426.172 750.922,460.941C750.922,426.172 778.886,397.945 813.33,397.945Z" style="fill:url(#_Linear5);"/>
            <g transform="matrix(22.505675,0,0,22.505675,-12540.932654,-4296.67931)">
                <path d="M602.222,211.837L602.222,208.009C602.222,207.581 602.121,207.248 601.919,207.01C601.717,206.772 601.438,206.653 601.082,206.653C600.854,206.653 600.656,206.706 600.488,206.812C600.32,206.918 600.189,207.066 600.095,207.256C600.001,207.446 599.954,207.665 599.954,207.913L599.27,207.457C599.27,207.013 599.375,206.621 599.585,206.281C599.795,205.941 600.077,205.676 600.431,205.486C600.785,205.296 601.178,205.201 601.61,205.201C602.35,205.201 602.909,205.42 603.287,205.858C603.665,206.296 603.854,206.869 603.854,207.577L603.854,211.837L602.222,211.837ZM594.41,211.837L594.41,205.357L595.85,205.357L595.85,207.505L596.054,207.505L596.054,211.837L594.41,211.837ZM598.322,211.837L598.322,208.009C598.322,207.581 598.221,207.248 598.019,207.01C597.817,206.772 597.538,206.653 597.182,206.653C596.842,206.653 596.569,206.77 596.363,207.004C596.157,207.238 596.054,207.541 596.054,207.913L595.37,207.433C595.37,207.009 595.476,206.629 595.688,206.293C595.9,205.957 596.185,205.691 596.543,205.495C596.901,205.299 597.302,205.201 597.746,205.201C598.254,205.201 598.671,205.309 598.997,205.525C599.323,205.741 599.564,206.029 599.72,206.389C599.876,206.749 599.954,207.145 599.954,207.577L599.954,211.837L598.322,211.837Z" style="fill:url(#_Linear6);fill-rule:nonzero;"/>
            </g>
            <g transform="matrix(22.505675,0,0,22.505675,-12540.932654,-4296.67931)">
                <path d="M607.814,212.017C607.17,212.017 606.632,211.867 606.2,211.567C605.768,211.267 605.443,210.859 605.225,210.343C605.007,209.827 604.898,209.245 604.898,208.597C604.898,207.949 605.006,207.367 605.222,206.851C605.438,206.335 605.756,205.927 606.176,205.627C606.596,205.327 607.114,205.177 607.73,205.177C608.35,205.177 608.89,205.325 609.35,205.621C609.81,205.917 610.167,206.322 610.421,206.836C610.675,207.35 610.802,207.937 610.802,208.597C610.802,209.245 610.677,209.827 610.427,210.343C610.177,210.859 609.828,211.267 609.38,211.567C608.932,211.867 608.41,212.017 607.814,212.017ZM604.622,214.717L604.622,205.357L606.062,205.357L606.062,209.797L606.266,209.797L606.266,214.717L604.622,214.717ZM607.55,210.565C607.902,210.565 608.19,210.477 608.414,210.301C608.638,210.125 608.804,209.888 608.912,209.59C609.02,209.292 609.074,208.961 609.074,208.597C609.074,208.237 609.018,207.908 608.906,207.61C608.794,207.312 608.621,207.074 608.387,206.896C608.153,206.718 607.854,206.629 607.49,206.629C607.15,206.629 606.875,206.711 606.665,206.875C606.455,207.039 606.302,207.269 606.206,207.565C606.11,207.861 606.062,208.205 606.062,208.597C606.062,208.989 606.11,209.333 606.206,209.629C606.302,209.925 606.459,210.155 606.677,210.319C606.895,210.483 607.186,210.565 607.55,210.565Z" style="fill:url(#_Linear7);fill-rule:nonzero;"/>
            </g>
            <g transform="matrix(22.505675,0,0,22.505675,-12540.932654,-4296.67931)">
                <path d="M613.142,212.017C612.678,212.017 612.285,211.928 611.963,211.75C611.641,211.572 611.397,211.334 611.231,211.036C611.065,210.738 610.982,210.409 610.982,210.049C610.982,209.749 611.028,209.475 611.12,209.227C611.212,208.979 611.361,208.76 611.567,208.57C611.773,208.38 612.05,208.221 612.398,208.093C612.638,208.005 612.924,207.927 613.256,207.859C613.588,207.791 613.964,207.726 614.384,207.664C614.804,207.602 615.266,207.533 615.77,207.457L615.182,207.781C615.182,207.397 615.09,207.115 614.906,206.935C614.722,206.755 614.414,206.665 613.982,206.665C613.742,206.665 613.492,206.723 613.232,206.839C612.972,206.955 612.79,207.161 612.686,207.457L611.21,206.989C611.374,206.453 611.682,206.017 612.134,205.681C612.586,205.345 613.202,205.177 613.982,205.177C614.554,205.177 615.062,205.265 615.506,205.441C615.95,205.617 616.286,205.921 616.514,206.353C616.642,206.593 616.718,206.833 616.742,207.073C616.766,207.313 616.778,207.581 616.778,207.877L616.778,211.837L615.35,211.837L615.35,210.505L615.554,210.781C615.238,211.217 614.897,211.532 614.531,211.726C614.165,211.92 613.702,212.017 613.142,212.017ZM613.49,210.733C613.79,210.733 614.043,210.68 614.249,210.574C614.455,210.468 614.619,210.347 614.741,210.211C614.863,210.075 614.946,209.961 614.99,209.869C615.074,209.693 615.123,209.488 615.137,209.254C615.151,209.02 615.158,208.825 615.158,208.669L615.638,208.789C615.154,208.869 614.762,208.936 614.462,208.99C614.162,209.044 613.92,209.093 613.736,209.137C613.552,209.181 613.39,209.229 613.25,209.281C613.09,209.345 612.961,209.414 612.863,209.488C612.765,209.562 612.693,209.643 612.647,209.731C612.601,209.819 612.578,209.917 612.578,210.025C612.578,210.173 612.615,210.3 612.689,210.406C612.763,210.512 612.868,210.593 613.004,210.649C613.14,210.705 613.302,210.733 613.49,210.733Z" style="fill:url(#_Linear8);fill-rule:nonzero;"/>
            </g>
            <g transform="matrix(22.505675,0,0,22.505675,-12540.932654,-4296.67931)">
                <path d="M620.09,212.017C619.274,212.017 618.615,211.832 618.113,211.462C617.611,211.092 617.306,210.569 617.198,209.893L618.866,209.641C618.934,209.945 619.085,210.183 619.319,210.355C619.553,210.527 619.85,210.613 620.21,210.613C620.506,210.613 620.734,210.556 620.894,210.442C621.054,210.328 621.134,210.169 621.134,209.965C621.134,209.837 621.102,209.734 621.038,209.656C620.974,209.578 620.831,209.501 620.609,209.425C620.387,209.349 620.042,209.249 619.574,209.125C619.046,208.989 618.624,208.837 618.308,208.669C617.992,208.501 617.764,208.3 617.624,208.066C617.484,207.832 617.414,207.549 617.414,207.217C617.414,206.801 617.52,206.44 617.732,206.134C617.944,205.828 618.243,205.592 618.629,205.426C619.015,205.26 619.47,205.177 619.994,205.177C620.502,205.177 620.952,205.255 621.344,205.411C621.736,205.567 622.053,205.789 622.295,206.077C622.537,206.365 622.686,206.705 622.742,207.097L621.074,207.397C621.046,207.157 620.942,206.967 620.762,206.827C620.582,206.687 620.338,206.605 620.03,206.581C619.73,206.561 619.489,206.601 619.307,206.701C619.125,206.801 619.034,206.945 619.034,207.133C619.034,207.245 619.073,207.339 619.151,207.415C619.229,207.491 619.391,207.569 619.637,207.649C619.883,207.729 620.258,207.833 620.762,207.961C621.254,208.089 621.649,208.238 621.947,208.408C622.245,208.578 622.462,208.782 622.598,209.02C622.734,209.258 622.802,209.545 622.802,209.881C622.802,210.545 622.562,211.067 622.082,211.447C621.602,211.827 620.938,212.017 620.09,212.017Z" style="fill:url(#_Linear9);fill-rule:nonzero;"/>
            </g>
            <g transform="matrix(22.505675,0,0,22.505675,-12540.932654,-4296.67931)">
                <path d="M623.342,211.837L623.342,203.197L624.974,203.197L624.974,207.181L628.262,203.197L630.254,203.197L626.642,207.457L630.482,211.837L628.418,211.837L624.974,207.901L624.974,211.837L623.342,211.837Z" style="fill:url(#_Linear10);fill-rule:nonzero;"/>
            </g>
            <g transform="matrix(22.505675,0,0,22.505675,-12540.932654,-4296.67931)">
                <path d="M632.342,212.017C631.878,212.017 631.485,211.928 631.163,211.75C630.841,211.572 630.597,211.334 630.431,211.036C630.265,210.738 630.182,210.409 630.182,210.049C630.182,209.749 630.228,209.475 630.32,209.227C630.412,208.979 630.561,208.76 630.767,208.57C630.973,208.38 631.25,208.221 631.598,208.093C631.838,208.005 632.124,207.927 632.456,207.859C632.788,207.791 633.164,207.726 633.584,207.664C634.004,207.602 634.466,207.533 634.97,207.457L634.382,207.781C634.382,207.397 634.29,207.115 634.106,206.935C633.922,206.755 633.614,206.665 633.182,206.665C632.942,206.665 632.692,206.723 632.432,206.839C632.172,206.955 631.99,207.161 631.886,207.457L630.41,206.989C630.574,206.453 630.882,206.017 631.334,205.681C631.786,205.345 632.402,205.177 633.182,205.177C633.754,205.177 634.262,205.265 634.706,205.441C635.15,205.617 635.486,205.921 635.714,206.353C635.842,206.593 635.918,206.833 635.942,207.073C635.966,207.313 635.978,207.581 635.978,207.877L635.978,211.837L634.55,211.837L634.55,210.505L634.754,210.781C634.438,211.217 634.097,211.532 633.731,211.726C633.365,211.92 632.902,212.017 632.342,212.017ZM632.69,210.733C632.99,210.733 633.243,210.68 633.449,210.574C633.655,210.468 633.819,210.347 633.941,210.211C634.063,210.075 634.146,209.961 634.19,209.869C634.274,209.693 634.323,209.488 634.337,209.254C634.351,209.02 634.358,208.825 634.358,208.669L634.838,208.789C634.354,208.869 633.962,208.936 633.662,208.99C633.362,209.044 633.12,209.093 632.936,209.137C632.752,209.181 632.59,209.229 632.45,209.281C632.29,209.345 632.161,209.414 632.063,209.488C631.965,209.562 631.893,209.643 631.847,209.731C631.801,209.819 631.778,209.917 631.778,210.025C631.778,210.173 631.815,210.3 631.889,210.406C631.963,210.512 632.068,210.593 632.204,210.649C632.34,210.705 632.502,210.733 632.69,210.733Z" style="fill:url(#_Linear11);fill-rule:nonzero;"/>
            </g>
            <g transform="matrix(22.505675,0,0,22.505675,-12540.932654,-4296.67931)">
                <path d="M636.758,211.837L636.758,205.357L638.198,205.357L638.198,206.941L638.042,206.737C638.126,206.513 638.238,206.309 638.378,206.125C638.518,205.941 638.69,205.789 638.894,205.669C639.05,205.573 639.22,205.498 639.404,205.444C639.588,205.39 639.778,205.356 639.974,205.342C640.17,205.328 640.366,205.333 640.562,205.357L640.562,206.881C640.382,206.825 640.173,206.806 639.935,206.824C639.697,206.842 639.482,206.897 639.29,206.989C639.098,207.077 638.936,207.194 638.804,207.34C638.672,207.486 638.572,207.658 638.504,207.856C638.436,208.054 638.402,208.277 638.402,208.525L638.402,211.837L636.758,211.837Z" style="fill:url(#_Linear12);fill-rule:nonzero;"/>
            </g>
            <g transform="matrix(22.505675,0,0,22.505675,-12540.932654,-4296.67931)">
                <rect x="641.042" y="205.357" width="1.632" height="6.48" style="fill:url(#_Linear13);fill-rule:nonzero;"/>
                <g transform="matrix(0.019016,0,0,0.046299,607.426569,189.153337)">
                    <path d="M1810.627,299.447C1822.008,299.447 1832.922,301.304 1840.969,304.609C1849.016,307.914 1853.536,312.397 1853.536,317.071C1853.536,324.167 1853.536,330.706 1853.536,330.706L1767.716,330.706L1767.716,317.071C1767.716,312.397 1772.236,307.914 1780.283,304.609C1788.33,301.304 1799.244,299.447 1810.624,299.447L1810.627,299.447Z" style="fill:url(#_Linear14);"/>
                </g>
            </g>
            <g transform="matrix(22.505675,0,0,22.505675,-12540.932654,-4296.67931)">
                <path d="M643.694,211.837L643.694,205.357L645.134,205.357L645.134,206.941L644.978,206.737C645.062,206.513 645.174,206.309 645.314,206.125C645.454,205.941 645.626,205.789 645.83,205.669C645.986,205.573 646.156,205.498 646.34,205.444C646.524,205.39 646.714,205.356 646.91,205.342C647.106,205.328 647.302,205.333 647.498,205.357L647.498,206.881C647.318,206.825 647.109,206.806 646.871,206.824C646.633,206.842 646.418,206.897 646.226,206.989C646.034,207.077 645.872,207.194 645.74,207.34C645.608,207.486 645.508,207.658 645.44,207.856C645.372,208.054 645.338,208.277 645.338,208.525L645.338,211.837L643.694,211.837Z" style="fill:url(#_Linear15);fill-rule:nonzero;"/>
            </g>
        </g>
    </g>
    <defs>
        <linearGradient id="_Linear1" x1="0" y1="0" x2="1" y2="0" gradientUnits="userSpaceOnUse" gradientTransform="matrix(0,287.726754,-797.106639,0,512,432.802592)"><stop offset="0" style="stop-color:rgb(0,106,97);stop-opacity:1"/><stop offset="1" style="stop-color:rgb(0,227,141);stop-opacity:1"/></linearGradient>
        <linearGradient id="_Linear2" x1="0" y1="0" x2="1" y2="0" gradientUnits="userSpaceOnUse" gradientTransform="matrix(0,112.860423,-119.794944,0,347.416909,388.211209)"><stop offset="0" style="stop-color:rgb(0,106,97);stop-opacity:1"/><stop offset="1" style="stop-color:rgb(0,227,141);stop-opacity:1"/></linearGradient>
        <linearGradient id="_Linear3" x1="0" y1="0" x2="1" y2="0" gradientUnits="userSpaceOnUse" gradientTransform="matrix(0,-400.402109,425.004151,0,512,695.509747)"><stop offset="0" style="stop-color:rgb(0,106,97);stop-opacity:1"/><stop offset="0.55" style="stop-color:rgb(0,131,106);stop-opacity:1"/><stop offset="1" style="stop-color:rgb(0,227,141);stop-opacity:1"/></linearGradient>
        <linearGradient id="_Linear4" x1="0" y1="0" x2="1" y2="0" gradientUnits="userSpaceOnUse" gradientTransform="matrix(0,17.443588,-17.443588,0,617.198136,201.868899)"><stop offset="0" style="stop-color:rgb(0,106,97);stop-opacity:1"/><stop offset="1" style="stop-color:rgb(0,227,141);stop-opacity:1"/></linearGradient>
        <linearGradient id="_Linear5" x1="0" y1="0" x2="1" y2="0" gradientUnits="userSpaceOnUse" gradientTransform="matrix(0,392.579727,-392.579727,0,1349.527908,246.51649)"><stop offset="0" style="stop-color:rgb(0,106,97);stop-opacity:1"/><stop offset="1" style="stop-color:rgb(0,227,141);stop-opacity:1"/></linearGradient>
        <linearGradient id="_Linear6" x1="0" y1="0" x2="1" y2="0" gradientUnits="userSpaceOnUse" gradientTransform="matrix(0,17.443588,-17.443588,0,617.198136,201.868899)"><stop offset="0" style="stop-color:rgb(0,106,97);stop-opacity:1"/><stop offset="1" style="stop-color:rgb(0,227,141);stop-opacity:1"/></linearGradient>
        <linearGradient id="_Linear7" x1="0" y1="0" x2="1" y2="0" gradientUnits="userSpaceOnUse" gradientTransform="matrix(0,17.443588,-17.443588,0,617.198136,201.868899)"><stop offset="0" style="stop-color:rgb(0,106,97);stop-opacity:1"/><stop offset="1" style="stop-color:rgb(0,227,141);stop-opacity:1"/></linearGradient>
        <linearGradient id="_Linear8" x1="0" y1="0" x2="1" y2="0" gradientUnits="userSpaceOnUse" gradientTransform="matrix(0,17.443588,-17.443588,0,617.198136,201.868899)"><stop offset="0" style="stop-color:rgb(0,106,97);stop-opacity:1"/><stop offset="1" style="stop-color:rgb(0,227,141);stop-opacity:1"/></linearGradient>
        <linearGradient id="_Linear9" x1="0" y1="0" x2="1" y2="0" gradientUnits="userSpaceOnUse" gradientTransform="matrix(0,17.443588,-17.443588,0,617.198136,201.868899)"><stop offset="0" style="stop-color:rgb(0,106,97);stop-opacity:1"/><stop offset="1" style="stop-color:rgb(0,227,141);stop-opacity:1"/></linearGradient>
        <linearGradient id="_Linear10" x1="0" y1="0" x2="1" y2="0" gradientUnits="userSpaceOnUse" gradientTransform="matrix(0,17.443588,-17.443588,0,617.198136,201.868899)"><stop offset="0" style="stop-color:rgb(0,106,97);stop-opacity:1"/><stop offset="1" style="stop-color:rgb(0,227,141);stop-opacity:1"/></linearGradient>
        <linearGradient id="_Linear11" x1="0" y1="0" x2="1" y2="0" gradientUnits="userSpaceOnUse" gradientTransform="matrix(0,17.443588,-17.443588,0,617.198136,201.868899)"><stop offset="0" style="stop-color:rgb(0,106,97);stop-opacity:1"/><stop offset="1" style="stop-color:rgb(0,227,141);stop-opacity:1"/></linearGradient>
        <linearGradient id="_Linear12" x1="0" y1="0" x2="1" y2="0" gradientUnits="userSpaceOnUse" gradientTransform="matrix(0,17.443588,-17.443588,0,617.198136,201.868899)"><stop offset="0" style="stop-color:rgb(0,106,97);stop-opacity:1"/><stop offset="1" style="stop-color:rgb(0,227,141);stop-opacity:1"/></linearGradient>
        <linearGradient id="_Linear13" x1="0" y1="0" x2="1" y2="0" gradientUnits="userSpaceOnUse" gradientTransform="matrix(0,17.443588,-17.443588,0,617.198136,201.868899)"><stop offset="0" style="stop-color:rgb(0,106,97);stop-opacity:1"/><stop offset="1" style="stop-color:rgb(0,227,141);stop-opacity:1"/></linearGradient>
        <linearGradient id="_Linear14" x1="0" y1="0" x2="1" y2="0" gradientUnits="userSpaceOnUse" gradientTransform="matrix(0,376.762218,-917.292382,0,513.849763,274.642075)"><stop offset="0" style="stop-color:rgb(0,106,97);stop-opacity:1"/><stop offset="1" style="stop-color:rgb(0,227,141);stop-opacity:1"/></linearGradient>
        <linearGradient id="_Linear15" x1="0" y1="0" x2="1" y2="0" gradientUnits="userSpaceOnUse" gradientTransform="matrix(0,17.443588,-17.443588,0,617.198136,201.868899)"><stop offset="0" style="stop-color:rgb(0,106,97);stop-opacity:1"/><stop offset="1" style="stop-color:rgb(0,227,141);stop-opacity:1"/></linearGradient>
    </defs>
</svg>
